<svg width="28" height="60" viewBox="0 0 28 60" fill="none" xmlns="http://www.w3.org/2000/svg">
<g clip-path="url(#clip0_8_584)">
<path d="M1.74512 36.5H21.7549C22.0967 36.5 22.3896 36.3779 22.6338 36.1338C22.8779 35.8896 23 35.5967 23 35.2549C23 34.9033 22.8779 34.6055 22.6338 34.3613C22.3896 34.1172 22.0967 33.9951 21.7549 33.9951H1.74512C1.40332 33.9951 1.11035 34.1172 0.866211 34.3613C0.62207 34.6055 0.5 34.9033 0.5 35.2549C0.5 35.5967 0.62207 35.8896 0.866211 36.1338C1.11035 36.3779 1.40332 36.5 1.74512 36.5ZM1.74512 30.2451H21.7549C22.0967 30.2451 22.3896 30.123 22.6338 29.8789C22.8779 29.6348 23 29.3418 23 29C23 28.6582 22.8779 28.3652 22.6338 28.1211C22.3896 27.877 22.0967 27.7549 21.7549 27.7549H1.74512C1.40332 27.7549 1.11035 27.877 0.866211 28.1211C0.62207 28.3652 0.5 28.6582 0.5 29C0.5 29.3418 0.62207 29.6348 0.866211 29.8789C1.11035 30.123 1.40332 30.2451 1.74512 30.2451ZM0.5 22.7451C0.5 23.0967 0.62207 23.3945 0.866211 23.6387C1.11035 23.8828 1.40332 24.0049 1.74512 24.0049H21.7549C22.0967 24.0049 22.3896 23.8828 22.6338 23.6387C22.8779 23.3945 23 23.0967 23 22.7451C23 22.4033 22.8779 22.1104 22.6338 21.8662C22.3896 21.6221 22.0967 21.5 21.7549 21.5H1.74512C1.40332 21.5 1.11035 21.6221 0.866211 21.8662C0.62207 22.1104 0.5 22.4033 0.5 22.7451Z" fill="#FF9000"/>
</g>
<defs>
<clipPath id="clip0_8_584">
<rect width="22.5" height="15" fill="white" transform="matrix(1 0 0 -1 0.5 36.5)"/>
</clipPath>
</defs>
</svg>
