<svg width="20" height="20" viewBox="0 0 20 20" fill="none" xmlns="http://www.w3.org/2000/svg">
<path d="M17.5 17.5L13.8809 13.8808M13.8809 13.8808C14.5 13.2617 14.991 12.5268 15.3261 11.7179C15.6611 10.9091 15.8336 10.0422 15.8336 9.16666C15.8336 8.29115 15.6611 7.42422 15.3261 6.61537C14.991 5.80651 14.5 5.07156 13.8809 4.45249C13.2618 3.83342 12.5269 3.34234 11.718 3.0073C10.9091 2.67226 10.0422 2.49982 9.16672 2.49982C8.29121 2.49982 7.42429 2.67226 6.61543 3.0073C5.80657 3.34234 5.07162 3.83342 4.45255 4.45249C3.20227 5.70276 2.49988 7.3985 2.49988 9.16666C2.49988 10.9348 3.20227 12.6305 4.45255 13.8808C5.70282 15.1311 7.39856 15.8335 9.16672 15.8335C10.9349 15.8335 12.6306 15.1311 13.8809 13.8808Z" stroke="white" stroke-width="1.5" stroke-linecap="round" stroke-linejoin="round"/>
</svg>
