<svg width="25" height="42" viewBox="0 0 25 42" fill="none" xmlns="http://www.w3.org/2000/svg">
<g clip-path="url(#clip0_0_526)">
<path d="M12.33 7.59003C12.882 7.59003 13.3534 7.39471 13.744 7.00409C14.1346 6.61346 14.33 6.14211 14.33 5.59003C14.33 5.03794 14.1346 4.56659 13.744 4.17596C13.3534 3.78534 12.882 3.59003 12.33 3.59003C11.7779 3.59003 11.3065 3.78534 10.9159 4.17596C10.5253 4.56659 10.33 5.03794 10.33 5.59003C10.33 6.14211 10.5253 6.61346 10.9159 7.00409C11.3065 7.39471 11.7779 7.59003 12.33 7.59003ZM12.33 9.59003C11.7779 9.59003 11.3065 9.78534 10.9159 10.176C10.5253 10.5666 10.33 11.0379 10.33 11.59C10.33 12.1421 10.5253 12.6135 10.9159 13.0041C11.3065 13.3947 11.7779 13.59 12.33 13.59C12.882 13.59 13.3534 13.3947 13.744 13.0041C14.1346 12.6135 14.33 12.1421 14.33 11.59C14.33 11.0379 14.1346 10.5666 13.744 10.176C13.3534 9.78534 12.882 9.59003 12.33 9.59003ZM12.33 15.59C11.7779 15.59 11.3065 15.7853 10.9159 16.176C10.5253 16.5666 10.33 17.0379 10.33 17.59C10.33 18.1421 10.5253 18.6135 10.9159 19.0041C11.3065 19.3947 11.7779 19.59 12.33 19.59C12.882 19.59 13.3534 19.3947 13.744 19.0041C14.1346 18.6135 14.33 18.1421 14.33 17.59C14.33 17.0379 14.1346 16.5666 13.744 16.176C13.3534 15.7853 12.882 15.59 12.33 15.59Z" fill="#C6C6C6"/>
</g>
<defs>
<clipPath id="clip0_0_526">
<rect width="4" height="16" fill="white" transform="matrix(1 0 0 -1 10.33 19.59)"/>
</clipPath>
</defs>
</svg>
