<svg width="14" height="12" viewBox="0 0 14 12" fill="none" xmlns="http://www.w3.org/2000/svg">
<g clip-path="url(#clip0_0_333)">
<path d="M7.40184 0.517075L4.26512 3.66454C4.1577 3.77196 4.07534 3.89549 4.01805 4.03514C3.96076 4.17479 3.93211 4.31981 3.93211 4.4702V10.1313C3.93211 10.4464 4.04312 10.715 4.26512 10.937C4.48713 11.159 4.75568 11.27 5.07079 11.27H10.1733C10.4025 11.27 10.612 11.2073 10.8017 11.082C10.9915 10.9567 11.1294 10.7902 11.2153 10.5825L13.063 6.26414C13.1847 5.98485 13.2277 5.70197 13.1919 5.41551C13.1632 5.13622 13.0737 4.88377 12.9233 4.65819C12.7729 4.4326 12.576 4.24819 12.3325 4.10497C12.0819 3.96174 11.8061 3.89012 11.5054 3.89012H8.29344L8.83055 1.29051C8.8592 1.14728 8.85383 1.00763 8.81444 0.871567C8.77505 0.735499 8.70523 0.617335 8.60497 0.517075C8.43309 0.352361 8.23078 0.270004 7.99803 0.270004C7.76528 0.270004 7.56655 0.352361 7.40184 0.517075ZM1.66551 11.27C1.97345 11.27 2.23843 11.159 2.46043 10.937C2.68244 10.715 2.79344 10.4464 2.79344 10.1313V5.59813C2.79344 5.28303 2.68244 5.01447 2.46043 4.79247C2.23843 4.57046 1.97345 4.45946 1.66551 4.45946C1.35041 4.45946 1.08185 4.57046 0.859848 4.79247C0.637843 5.01447 0.52684 5.28303 0.52684 5.59813V10.1313C0.52684 10.4464 0.637843 10.715 0.859848 10.937C1.08185 11.159 1.35041 11.27 1.66551 11.27Z" fill="#767676"/>
</g>
<defs>
<clipPath id="clip0_0_333">
<rect width="12.69" height="11" fill="white" transform="matrix(1 0 0 -1 0.520004 11.27)"/>
</clipPath>
</defs>
</svg>
