<svg width="16" height="11" viewBox="0 0 16 11" fill="none" xmlns="http://www.w3.org/2000/svg">
<g clip-path="url(#clip0_0_439)">
<path d="M8.24501 0.27002C7.41168 0.27002 6.61415 0.393718 5.85243 0.641113C5.09071 0.888509 4.39247 1.23356 3.75771 1.67627C3.12294 2.11898 2.56142 2.64632 2.07314 3.2583C1.58485 3.87028 1.19748 4.54085 0.911026 5.27002C1.19748 5.99919 1.58485 6.66976 2.07314 7.28174C2.56142 7.89372 3.12294 8.42106 3.75771 8.86377C4.39247 9.30648 5.09071 9.65153 5.85243 9.89893C6.61415 10.1463 7.41168 10.27 8.24501 10.27C9.07834 10.27 9.87587 10.1463 10.6376 9.89893C11.3928 9.65153 12.0894 9.30648 12.7274 8.86377C13.3655 8.42106 13.9286 7.89372 14.4169 7.28174C14.9052 6.66976 15.2925 5.99919 15.579 5.27002C15.2925 4.54085 14.9052 3.87028 14.4169 3.2583C13.9286 2.64632 13.3655 2.11898 12.7274 1.67627C12.0894 1.23356 11.3928 0.888509 10.6376 0.641113C9.87587 0.393718 9.07834 0.27002 8.24501 0.27002ZM8.24501 8.6001C7.78277 8.6001 7.34983 8.51221 6.94618 8.33643C6.54254 8.16716 6.18935 7.93115 5.88661 7.62842C5.58388 7.32568 5.34462 6.97249 5.16884 6.56885C4.99957 6.1652 4.91493 5.73226 4.91493 5.27002C4.91493 4.80778 4.99957 4.37484 5.16884 3.97119C5.34462 3.56755 5.58388 3.21436 5.88661 2.91162C6.18935 2.60889 6.54254 2.37288 6.94618 2.20361C7.34983 2.02783 7.78277 1.93994 8.24501 1.93994C8.70725 1.93994 9.14019 2.02783 9.54384 2.20361C9.94748 2.37288 10.3007 2.60889 10.6034 2.91162C10.9061 3.21436 11.1421 3.56755 11.3114 3.97119C11.4872 4.37484 11.5751 4.80778 11.5751 5.27002C11.5751 5.73226 11.4872 6.1652 11.3114 6.56885C11.1421 6.97249 10.9061 7.32568 10.6034 7.62842C10.3007 7.93115 9.94748 8.16716 9.54384 8.33643C9.14019 8.51221 8.70725 8.6001 8.24501 8.6001ZM8.24501 3.26807C7.96506 3.26807 7.70465 3.32015 7.46376 3.42432C7.22288 3.52848 7.01129 3.67171 6.82899 3.854C6.6467 4.0363 6.50347 4.24788 6.39931 4.48877C6.29514 4.73617 6.24306 4.99658 6.24306 5.27002C6.24306 5.54346 6.29514 5.80387 6.39931 6.05127C6.50347 6.29216 6.6467 6.50374 6.82899 6.68604C7.01129 6.86833 7.22288 7.01156 7.46376 7.11572C7.70465 7.21989 7.96506 7.27197 8.24501 7.27197C8.51845 7.27197 8.77886 7.21989 9.02626 7.11572C9.26715 7.01156 9.47873 6.86833 9.66103 6.68604C9.84332 6.50374 9.98655 6.29216 10.0907 6.05127C10.1949 5.80387 10.247 5.54346 10.247 5.27002C10.247 4.99658 10.1949 4.73617 10.0907 4.48877C9.98655 4.24788 9.84332 4.0363 9.66103 3.854C9.47873 3.67171 9.26715 3.52848 9.02626 3.42432C8.77886 3.32015 8.51845 3.26807 8.24501 3.26807Z" fill="#767676"/>
</g>
<defs>
<clipPath id="clip0_0_439">
<rect width="14.67" height="10" fill="white" transform="matrix(1 0 0 -1 0.910004 10.27)"/>
</clipPath>
</defs>
</svg>
