<svg width="14" height="12" viewBox="0 0 14 12" fill="none" xmlns="http://www.w3.org/2000/svg">
<g clip-path="url(#clip0_0_481)">
<path d="M7.40184 0.51709L4.26512 3.66455C4.1577 3.77197 4.07534 3.89551 4.01805 4.03516C3.96076 4.1748 3.93211 4.31982 3.93211 4.47021V10.1313C3.93211 10.4465 4.04312 10.715 4.26512 10.937C4.48713 11.159 4.75568 11.27 5.07079 11.27H10.1733C10.4025 11.27 10.612 11.2074 10.8017 11.082C10.9915 10.9567 11.1294 10.7902 11.2153 10.5825L13.063 6.26416C13.1847 5.98486 13.2277 5.70199 13.1919 5.41553C13.1632 5.13623 13.0737 4.88379 12.9233 4.6582C12.7729 4.43262 12.576 4.24821 12.3325 4.10498C12.0819 3.96175 11.8061 3.89014 11.5054 3.89014H8.29344L8.83055 1.29053C8.8592 1.1473 8.85383 1.00765 8.81444 0.871582C8.77505 0.735515 8.70523 0.617351 8.60497 0.51709C8.43309 0.352376 8.23078 0.27002 7.99803 0.27002C7.76528 0.27002 7.56655 0.352376 7.40184 0.51709ZM1.66551 11.27C1.97345 11.27 2.23843 11.159 2.46043 10.937C2.68244 10.715 2.79344 10.4465 2.79344 10.1313V5.59814C2.79344 5.28304 2.68244 5.01449 2.46043 4.79248C2.23843 4.57048 1.97345 4.45947 1.66551 4.45947C1.35041 4.45947 1.08185 4.57048 0.859848 4.79248C0.637843 5.01449 0.52684 5.28304 0.52684 5.59814V10.1313C0.52684 10.4465 0.637843 10.715 0.859848 10.937C1.08185 11.159 1.35041 11.27 1.66551 11.27Z" fill="#767676"/>
</g>
<defs>
<clipPath id="clip0_0_481">
<rect width="12.69" height="11" fill="white" transform="matrix(1 0 0 -1 0.520004 11.27)"/>
</clipPath>
</defs>
</svg>
