<svg width="13" height="12" viewBox="0 0 13 12" fill="none" xmlns="http://www.w3.org/2000/svg">
<g clip-path="url(#clip0_0_444)">
<path d="M7.15184 0.51709L4.01512 3.66455C3.9077 3.77197 3.82534 3.89551 3.76805 4.03516C3.71076 4.1748 3.68211 4.31982 3.68211 4.47021V10.1313C3.68211 10.4465 3.79312 10.715 4.01512 10.937C4.23713 11.159 4.50568 11.27 4.82079 11.27H9.92332C10.1525 11.27 10.362 11.2074 10.5517 11.082C10.7415 10.9567 10.8794 10.7902 10.9653 10.5825L12.813 6.26416C12.9347 5.98486 12.9777 5.70199 12.9419 5.41553C12.9132 5.13623 12.8237 4.88379 12.6733 4.6582C12.5229 4.43262 12.326 4.24821 12.0825 4.10498C11.8319 3.96175 11.5561 3.89014 11.2554 3.89014H8.04344L8.58055 1.29053C8.6092 1.1473 8.60383 1.00765 8.56444 0.871582C8.52505 0.735515 8.45523 0.617351 8.35497 0.51709C8.18309 0.352376 7.98078 0.27002 7.74803 0.27002C7.51528 0.27002 7.31655 0.352376 7.15184 0.51709ZM1.41551 11.27C1.72345 11.27 1.98843 11.159 2.21043 10.937C2.43244 10.715 2.54344 10.4465 2.54344 10.1313V5.59814C2.54344 5.28304 2.43244 5.01449 2.21043 4.79248C1.98843 4.57048 1.72345 4.45947 1.41551 4.45947C1.10041 4.45947 0.831853 4.57048 0.609848 4.79248C0.387843 5.01449 0.27684 5.28304 0.27684 5.59814V10.1313C0.27684 10.4465 0.387843 10.715 0.609848 10.937C0.831853 11.159 1.10041 11.27 1.41551 11.27Z" fill="#767676"/>
</g>
<defs>
<clipPath id="clip0_0_444">
<rect width="12.69" height="11" fill="white" transform="matrix(1 0 0 -1 0.270004 11.27)"/>
</clipPath>
</defs>
</svg>
