<svg width="84" height="39" viewBox="0 0 84 39" fill="none" xmlns="http://www.w3.org/2000/svg">
<g clip-path="url(#clip0_0_531)">
<path d="M7.82025 9.75C7.13666 9.75 6.55072 9.99414 6.06244 10.4824C5.57416 10.9707 5.33002 11.5566 5.33002 12.2402V24.1641C5.33002 24.8672 5.57416 25.4629 6.06244 25.9512C6.55072 26.4395 7.13666 26.6836 7.82025 26.6836H22.4687C22.8007 25.4531 23.4843 24.4375 24.5195 23.6367C25.5546 22.8359 26.7363 22.4355 28.0644 22.4355C28.1816 22.4355 28.2988 22.4404 28.416 22.4502C28.5331 22.46 28.6406 22.4746 28.7382 22.4941V12.2402C28.7382 11.5566 28.4941 10.9707 28.0058 10.4824C27.5175 9.99414 26.9316 9.75 26.248 9.75H7.82025ZM20.3886 17.1621C20.7597 17.377 20.9453 17.7285 20.9453 18.2168C20.9453 18.7051 20.7597 19.0566 20.3886 19.2715L14.5878 22.6406C14.2558 22.8359 13.9286 22.8213 13.6064 22.5967C13.2841 22.3721 13.123 22.0352 13.123 21.5859V14.8184C13.123 14.3887 13.2841 14.0615 13.6064 13.8369C13.9286 13.6123 14.2558 13.5977 14.5878 13.793L20.3886 17.1621ZM32.8105 28.2656C32.8105 29.5742 32.3466 30.6924 31.4189 31.6201C30.4911 32.5479 29.373 33.0117 28.0644 33.0117C26.7558 33.0117 25.6328 32.5479 24.6953 31.6201C23.7578 30.6924 23.289 29.5742 23.289 28.2656C23.289 26.957 23.7578 25.834 24.6953 24.8965C25.6328 23.959 26.7558 23.4902 28.0644 23.4902C29.373 23.4902 30.4911 23.959 31.4189 24.8965C32.3466 25.834 32.8105 26.957 32.8105 28.2656ZM27.8886 25.7168L25.6328 27.9727C25.6132 28.0117 25.5986 28.041 25.5888 28.0605C25.579 28.0801 25.5742 28.1094 25.5742 28.1484C25.5742 28.207 25.5986 28.2607 25.6474 28.3096C25.6962 28.3584 25.7597 28.3828 25.8378 28.3828H27.039V30.3164C27.039 30.3945 27.0683 30.4727 27.1269 30.5508C27.1855 30.6289 27.2636 30.668 27.3613 30.668H28.8847C28.9824 30.668 29.0605 30.6289 29.1191 30.5508C29.1777 30.4727 29.207 30.3945 29.207 30.3164V28.3828H30.4081C30.4863 28.3828 30.5497 28.3584 30.5986 28.3096C30.6474 28.2607 30.6718 28.207 30.6718 28.1484C30.6718 28.1094 30.6669 28.0801 30.6572 28.0605C30.6474 28.041 30.6328 28.0117 30.6132 27.9727L28.3574 25.7168C28.3183 25.6777 28.2792 25.6484 28.2402 25.6289C28.2011 25.6094 28.162 25.5996 28.123 25.5996C28.0839 25.5996 28.0449 25.6094 28.0058 25.6289C27.9667 25.6484 27.9277 25.6777 27.8886 25.7168Z" fill="#C6C6C6"/>
</g>
<g clip-path="url(#clip1_0_531)">
<path d="M66.5704 12.4746L64.959 10.6289C64.7247 10.3555 64.4415 10.1406 64.1094 9.98438C63.7774 9.82812 63.4258 9.75 63.0547 9.75H57.5469C57.1758 9.75 56.8243 9.82812 56.4922 9.98438C56.1602 10.1406 55.8672 10.3555 55.6133 10.6289L54.002 12.4746H51.2481C50.545 12.4746 49.9395 12.7432 49.4317 13.2803C48.9239 13.8174 48.67 14.4668 48.67 15.2285V23.9004C48.67 24.6426 48.9239 25.2822 49.4317 25.8193C49.9395 26.3564 50.545 26.625 51.2481 26.625H65.8087C66.1602 25.4141 66.8487 24.4131 67.8741 23.6221C68.8995 22.8311 70.0762 22.4355 71.4044 22.4355C71.4825 22.4355 71.5655 22.4404 71.6534 22.4502C71.7413 22.46 71.834 22.4648 71.9317 22.4648V15.2285C71.9317 14.4668 71.6778 13.8174 71.17 13.2803C70.6622 12.7432 70.0469 12.4746 69.3243 12.4746H66.5704ZM53.0059 15.1113C53.0059 15.4043 52.8985 15.6631 52.6837 15.8877C52.4688 16.1123 52.2051 16.2246 51.8926 16.2246C51.5801 16.2246 51.3165 16.1123 51.1016 15.8877C50.8868 15.6631 50.7794 15.4043 50.7794 15.1113C50.7794 14.7988 50.8868 14.5303 51.1016 14.3057C51.3165 14.0811 51.5801 13.9688 51.8926 13.9688C52.2051 13.9688 52.4688 14.0811 52.6837 14.3057C52.8985 14.5303 53.0059 14.7988 53.0059 15.1113ZM65.3985 19.1836C65.3985 20.6094 64.8907 21.8301 63.8751 22.8457C62.8594 23.8613 61.6387 24.3691 60.213 24.3691C58.7676 24.3691 57.5372 23.8613 56.5215 22.8457C55.5059 21.8301 54.9981 20.6094 54.9981 19.1836C54.9981 17.7383 55.5059 16.5078 56.5215 15.4922C57.5372 14.4766 58.7676 13.9688 60.213 13.9688C61.6387 13.9688 62.8594 14.4766 63.8751 15.4922C64.8907 16.5078 65.3985 17.7383 65.3985 19.1836ZM63.4942 19.1836C63.4942 20.082 63.1719 20.8584 62.5274 21.5127C61.8829 22.167 61.1114 22.4941 60.213 22.4941C59.295 22.4941 58.5137 22.167 57.8692 21.5127C57.2247 20.8584 56.9024 20.082 56.9024 19.1836C56.9024 18.2656 57.2247 17.4844 57.8692 16.8398C58.5137 16.1953 59.295 15.873 60.213 15.873C61.1114 15.873 61.8829 16.1953 62.5274 16.8398C63.1719 17.4844 63.4942 18.2656 63.4942 19.1836ZM71.4044 33.0117C72.713 33.0117 73.8311 32.5479 74.7589 31.6201C75.6866 30.6924 76.1505 29.5742 76.1505 28.2656C76.1505 26.957 75.6866 25.834 74.7589 24.8965C73.8311 23.959 72.713 23.4902 71.4044 23.4902C70.0958 23.4902 68.9727 23.959 68.0352 24.8965C67.0977 25.834 66.629 26.957 66.629 28.2656C66.629 29.5742 67.0977 30.6924 68.0352 31.6201C68.9727 32.5479 70.0958 33.0117 71.4044 33.0117ZM68.9727 27.9727L71.2286 25.7168C71.2676 25.6777 71.3067 25.6484 71.3458 25.6289C71.3848 25.6094 71.4239 25.5996 71.463 25.5996C71.502 25.5996 71.5411 25.6094 71.5801 25.6289C71.6192 25.6484 71.6583 25.6777 71.6973 25.7168L73.9532 27.9727C73.9727 28.0117 73.9874 28.041 73.9971 28.0605C74.0069 28.0801 74.0118 28.1094 74.0118 28.1484C74.0118 28.207 73.9874 28.2607 73.9385 28.3096C73.8897 28.3584 73.8262 28.3828 73.7481 28.3828H72.5469V30.3164C72.5469 30.3945 72.5176 30.4678 72.459 30.5361C72.4005 30.6045 72.3223 30.6387 72.2247 30.6387H70.7012C70.6036 30.6387 70.5255 30.6045 70.4669 30.5361C70.4083 30.4678 70.379 30.3945 70.379 30.3164V28.3828H69.1778C69.0997 28.3828 69.0362 28.3584 68.9874 28.3096C68.9385 28.2607 68.9141 28.207 68.9141 28.1484C68.9141 28.1094 68.919 28.0801 68.9288 28.0605C68.9385 28.041 68.9532 28.0117 68.9727 27.9727Z" fill="#C6C6C6"/>
</g>
<defs>
<clipPath id="clip0_0_531">
<rect width="30" height="30" fill="white" transform="matrix(1 0 0 -1 5.33002 36)"/>
</clipPath>
<clipPath id="clip1_0_531">
<rect width="30" height="30" fill="white" transform="matrix(1 0 0 -1 48.67 36)"/>
</clipPath>
</defs>
</svg>
