<svg width="25" height="42" viewBox="0 0 25 42" fill="none" xmlns="http://www.w3.org/2000/svg">
<g clip-path="url(#clip0_0_268)">
<path d="M12.25 7.59C12.8021 7.59 13.2734 7.39469 13.6641 7.00407C14.0547 6.61344 14.25 6.14209 14.25 5.59C14.25 5.03792 14.0547 4.56657 13.6641 4.17594C13.2734 3.78532 12.8021 3.59 12.25 3.59C11.6979 3.59 11.2266 3.78532 10.8359 4.17594C10.4453 4.56657 10.25 5.03792 10.25 5.59C10.25 6.14209 10.4453 6.61344 10.8359 7.00407C11.2266 7.39469 11.6979 7.59 12.25 7.59ZM12.25 9.59C11.6979 9.59 11.2266 9.78532 10.8359 10.1759C10.4453 10.5666 10.25 11.0379 10.25 11.59C10.25 12.1421 10.4453 12.6134 10.8359 13.0041C11.2266 13.3947 11.6979 13.59 12.25 13.59C12.8021 13.59 13.2734 13.3947 13.6641 13.0041C14.0547 12.6134 14.25 12.1421 14.25 11.59C14.25 11.0379 14.0547 10.5666 13.6641 10.1759C13.2734 9.78532 12.8021 9.59 12.25 9.59ZM12.25 15.59C11.6979 15.59 11.2266 15.7853 10.8359 16.1759C10.4453 16.5666 10.25 17.0379 10.25 17.59C10.25 18.1421 10.4453 18.6134 10.8359 19.0041C11.2266 19.3947 11.6979 19.59 12.25 19.59C12.8021 19.59 13.2734 19.3947 13.6641 19.0041C14.0547 18.6134 14.25 18.1421 14.25 17.59C14.25 17.0379 14.0547 16.5666 13.6641 16.1759C13.2734 15.7853 12.8021 15.59 12.25 15.59Z" fill="#C6C6C6"/>
</g>
<defs>
<clipPath id="clip0_0_268">
<rect width="4" height="16" fill="white" transform="matrix(1 0 0 -1 10.25 19.59)"/>
</clipPath>
</defs>
</svg>
