<svg width="25" height="42" viewBox="0 0 25 42" fill="none" xmlns="http://www.w3.org/2000/svg">
<g clip-path="url(#clip0_0_157)">
<path d="M12.5 7.59C13.0521 7.59 13.5234 7.39468 13.9141 7.00406C14.3047 6.61343 14.5 6.14208 14.5 5.59C14.5 5.03791 14.3047 4.56656 13.9141 4.17593C13.5234 3.78531 13.0521 3.59 12.5 3.59C11.9479 3.59 11.4766 3.78531 11.0859 4.17593C10.6953 4.56656 10.5 5.03791 10.5 5.59C10.5 6.14208 10.6953 6.61343 11.0859 7.00406C11.4766 7.39468 11.9479 7.59 12.5 7.59ZM12.5 9.59C11.9479 9.59 11.4766 9.78531 11.0859 10.1759C10.6953 10.5666 10.5 11.0379 10.5 11.59C10.5 12.1421 10.6953 12.6134 11.0859 13.0041C11.4766 13.3947 11.9479 13.59 12.5 13.59C13.0521 13.59 13.5234 13.3947 13.9141 13.0041C14.3047 12.6134 14.5 12.1421 14.5 11.59C14.5 11.0379 14.3047 10.5666 13.9141 10.1759C13.5234 9.78531 13.0521 9.59 12.5 9.59ZM12.5 15.59C11.9479 15.59 11.4766 15.7853 11.0859 16.1759C10.6953 16.5666 10.5 17.0379 10.5 17.59C10.5 18.1421 10.6953 18.6134 11.0859 19.0041C11.4766 19.3947 11.9479 19.59 12.5 19.59C13.0521 19.59 13.5234 19.3947 13.9141 19.0041C14.3047 18.6134 14.5 18.1421 14.5 17.59C14.5 17.0379 14.3047 16.5666 13.9141 16.1759C13.5234 15.7853 13.0521 15.59 12.5 15.59Z" fill="#C6C6C6"/>
</g>
<defs>
<clipPath id="clip0_0_157">
<rect width="4" height="16" fill="white" transform="matrix(1 0 0 -1 10.5 19.59)"/>
</clipPath>
</defs>
</svg>
