<svg width="59" height="41" viewBox="0 0 59 41" fill="none" xmlns="http://www.w3.org/2000/svg">
<rect width="59" height="41" fill="url(#paint0_linear_0_67)"/>
<g clip-path="url(#clip0_0_67)">
<path d="M36.3994 27.6045C36.6631 27.8682 36.978 28 37.3442 28C37.7104 28 38.0254 27.8682 38.2891 27.6045L44.4561 21.4521C44.71 21.1885 44.8369 20.8711 44.8369 20.5C44.8369 20.1289 44.71 19.8115 44.4561 19.5479L38.2891 13.3955C38.0254 13.1318 37.7104 13 37.3442 13C36.978 13 36.6631 13.1318 36.3994 13.3955C36.1357 13.6592 36.0039 13.9741 36.0039 14.3403C36.0039 14.7065 36.1357 15.0215 36.3994 15.2852L41.5996 20.5L36.3994 25.7148C36.1357 25.9785 36.0063 26.2959 36.0112 26.667C36.0161 27.0381 36.1455 27.3506 36.3994 27.6045Z" fill="#969696"/>
</g>
<defs>
<linearGradient id="paint0_linear_0_67" x1="60.5558" y1="23.217" x2="-1.55581" y2="17.783" gradientUnits="userSpaceOnUse">
<stop offset="0.4762"/>
<stop offset="1" stop-opacity="0"/>
</linearGradient>
<clipPath id="clip0_0_67">
<rect width="8.84" height="15" fill="white" transform="matrix(1 0 0 -1 36 28)"/>
</clipPath>
</defs>
</svg>
