<svg width="16" height="11" viewBox="0 0 16 11" fill="none" xmlns="http://www.w3.org/2000/svg">
<g clip-path="url(#clip0_0_402)">
<path d="M7.755 0.27002C6.92167 0.27002 6.12415 0.393718 5.36243 0.641113C4.60071 0.888509 3.90247 1.23356 3.2677 1.67627C2.63293 2.11898 2.07141 2.64632 1.58313 3.2583C1.09485 3.87028 0.707479 4.54085 0.421021 5.27002C0.707479 5.99919 1.09485 6.66976 1.58313 7.28174C2.07141 7.89372 2.63293 8.42106 3.2677 8.86377C3.90247 9.30648 4.60071 9.65153 5.36243 9.89893C6.12415 10.1463 6.92167 10.27 7.755 10.27C8.58834 10.27 9.38586 10.1463 10.1476 9.89893C10.9028 9.65153 11.5994 9.30648 12.2374 8.86377C12.8754 8.42106 13.4386 7.89372 13.9269 7.28174C14.4152 6.66976 14.8025 5.99919 15.089 5.27002C14.8025 4.54085 14.4152 3.87028 13.9269 3.2583C13.4386 2.64632 12.8754 2.11898 12.2374 1.67627C11.5994 1.23356 10.9028 0.888509 10.1476 0.641113C9.38586 0.393718 8.58834 0.27002 7.755 0.27002ZM7.755 8.6001C7.29277 8.6001 6.85982 8.51221 6.45618 8.33643C6.05253 8.16716 5.69934 7.93115 5.39661 7.62842C5.09387 7.32568 4.85461 6.97249 4.67883 6.56885C4.50956 6.1652 4.42493 5.73226 4.42493 5.27002C4.42493 4.80778 4.50956 4.37484 4.67883 3.97119C4.85461 3.56755 5.09387 3.21436 5.39661 2.91162C5.69934 2.60889 6.05253 2.37288 6.45618 2.20361C6.85982 2.02783 7.29277 1.93994 7.755 1.93994C8.21724 1.93994 8.65019 2.02783 9.05383 2.20361C9.45748 2.37288 9.81067 2.60889 10.1134 2.91162C10.4161 3.21436 10.6521 3.56755 10.8214 3.97119C10.9972 4.37484 11.0851 4.80778 11.0851 5.27002C11.0851 5.73226 10.9972 6.1652 10.8214 6.56885C10.6521 6.97249 10.4161 7.32568 10.1134 7.62842C9.81067 7.93115 9.45748 8.16716 9.05383 8.33643C8.65019 8.51221 8.21724 8.6001 7.755 8.6001ZM7.755 3.26807C7.47506 3.26807 7.21464 3.32015 6.97375 3.42432C6.73287 3.52848 6.52128 3.67171 6.33899 3.854C6.1567 4.0363 6.01347 4.24788 5.9093 4.48877C5.80514 4.73617 5.75305 4.99658 5.75305 5.27002C5.75305 5.54346 5.80514 5.80387 5.9093 6.05127C6.01347 6.29216 6.1567 6.50374 6.33899 6.68604C6.52128 6.86833 6.73287 7.01156 6.97375 7.11572C7.21464 7.21989 7.47506 7.27197 7.755 7.27197C8.02844 7.27197 8.28886 7.21989 8.53625 7.11572C8.77714 7.01156 8.98873 6.86833 9.17102 6.68604C9.35331 6.50374 9.49654 6.29216 9.60071 6.05127C9.70487 5.80387 9.75696 5.54346 9.75696 5.27002C9.75696 4.99658 9.70487 4.73617 9.60071 4.48877C9.49654 4.24788 9.35331 4.0363 9.17102 3.854C8.98873 3.67171 8.77714 3.52848 8.53625 3.42432C8.28886 3.32015 8.02844 3.26807 7.755 3.26807Z" fill="#767676"/>
</g>
<defs>
<clipPath id="clip0_0_402">
<rect width="14.67" height="10" fill="white" transform="matrix(1 0 0 -1 0.419983 10.27)"/>
</clipPath>
</defs>
</svg>
