<svg width="16" height="11" viewBox="0 0 16 11" fill="none" xmlns="http://www.w3.org/2000/svg">
<g clip-path="url(#clip0_0_254)">
<path d="M7.755 0.270004C6.92167 0.270004 6.12415 0.393703 5.36243 0.641098C4.60071 0.888494 3.90247 1.23355 3.2677 1.67625C2.63293 2.11896 2.07141 2.64631 1.58313 3.25829C1.09485 3.87026 0.707479 4.54084 0.421021 5.27C0.707479 5.99917 1.09485 6.66974 1.58313 7.28172C2.07141 7.8937 2.63293 8.42105 3.2677 8.86375C3.90247 9.30646 4.60071 9.65151 5.36243 9.89891C6.12415 10.1463 6.92167 10.27 7.755 10.27C8.58834 10.27 9.38586 10.1463 10.1476 9.89891C10.9028 9.65151 11.5994 9.30646 12.2374 8.86375C12.8754 8.42105 13.4386 7.8937 13.9269 7.28172C14.4152 6.66974 14.8025 5.99917 15.089 5.27C14.8025 4.54084 14.4152 3.87026 13.9269 3.25829C13.4386 2.64631 12.8754 2.11896 12.2374 1.67625C11.5994 1.23355 10.9028 0.888494 10.1476 0.641098C9.38586 0.393703 8.58834 0.270004 7.755 0.270004ZM7.755 8.60008C7.29277 8.60008 6.85982 8.51219 6.45618 8.33641C6.05253 8.16714 5.69934 7.93114 5.39661 7.6284C5.09387 7.32567 4.85461 6.97248 4.67883 6.56883C4.50956 6.16519 4.42493 5.73224 4.42493 5.27C4.42493 4.80776 4.50956 4.37482 4.67883 3.97118C4.85461 3.56753 5.09387 3.21434 5.39661 2.91161C5.69934 2.60887 6.05253 2.37287 6.45618 2.2036C6.85982 2.02782 7.29277 1.93993 7.755 1.93993C8.21724 1.93993 8.65019 2.02782 9.05383 2.2036C9.45748 2.37287 9.81067 2.60887 10.1134 2.91161C10.4161 3.21434 10.6521 3.56753 10.8214 3.97118C10.9972 4.37482 11.0851 4.80776 11.0851 5.27C11.0851 5.73224 10.9972 6.16519 10.8214 6.56883C10.6521 6.97248 10.4161 7.32567 10.1134 7.6284C9.81067 7.93114 9.45748 8.16714 9.05383 8.33641C8.65019 8.51219 8.21724 8.60008 7.755 8.60008ZM7.755 3.26805C7.47506 3.26805 7.21464 3.32013 6.97375 3.4243C6.73287 3.52847 6.52128 3.6717 6.33899 3.85399C6.1567 4.03628 6.01347 4.24787 5.9093 4.48875C5.80514 4.73615 5.75305 4.99657 5.75305 5.27C5.75305 5.54344 5.80514 5.80386 5.9093 6.05125C6.01347 6.29214 6.1567 6.50373 6.33899 6.68602C6.52128 6.86831 6.73287 7.01154 6.97375 7.11571C7.21464 7.21987 7.47506 7.27196 7.755 7.27196C8.02844 7.27196 8.28886 7.21987 8.53625 7.11571C8.77714 7.01154 8.98873 6.86831 9.17102 6.68602C9.35331 6.50373 9.49654 6.29214 9.60071 6.05125C9.70487 5.80386 9.75696 5.54344 9.75696 5.27C9.75696 4.99657 9.70487 4.73615 9.60071 4.48875C9.49654 4.24787 9.35331 4.03628 9.17102 3.85399C8.98873 3.6717 8.77714 3.52847 8.53625 3.4243C8.28886 3.32013 8.02844 3.26805 7.755 3.26805Z" fill="#767676"/>
</g>
<defs>
<clipPath id="clip0_0_254">
<rect width="14.67" height="10" fill="white" transform="matrix(1 0 0 -1 0.419983 10.27)"/>
</clipPath>
</defs>
</svg>
