<svg width="13" height="12" viewBox="0 0 13 12" fill="none" xmlns="http://www.w3.org/2000/svg">
<g clip-path="url(#clip0_0_296)">
<path d="M7.15184 0.517075L4.01512 3.66454C3.9077 3.77196 3.82534 3.89549 3.76805 4.03514C3.71076 4.17479 3.68211 4.31981 3.68211 4.4702V10.1313C3.68211 10.4464 3.79312 10.715 4.01512 10.937C4.23713 11.159 4.50568 11.27 4.82079 11.27H9.92332C10.1525 11.27 10.362 11.2073 10.5517 11.082C10.7415 10.9567 10.8794 10.7902 10.9653 10.5825L12.813 6.26414C12.9347 5.98485 12.9777 5.70197 12.9419 5.41551C12.9132 5.13622 12.8237 4.88377 12.6733 4.65819C12.5229 4.4326 12.326 4.24819 12.0825 4.10497C11.8319 3.96174 11.5561 3.89012 11.2554 3.89012H8.04344L8.58055 1.29051C8.6092 1.14728 8.60383 1.00763 8.56444 0.871567C8.52505 0.735499 8.45523 0.617335 8.35497 0.517075C8.18309 0.352361 7.98078 0.270004 7.74803 0.270004C7.51528 0.270004 7.31655 0.352361 7.15184 0.517075ZM1.41551 11.27C1.72345 11.27 1.98843 11.159 2.21043 10.937C2.43244 10.715 2.54344 10.4464 2.54344 10.1313V5.59813C2.54344 5.28303 2.43244 5.01447 2.21043 4.79247C1.98843 4.57046 1.72345 4.45946 1.41551 4.45946C1.10041 4.45946 0.831853 4.57046 0.609848 4.79247C0.387843 5.01447 0.27684 5.28303 0.27684 5.59813V10.1313C0.27684 10.4464 0.387843 10.715 0.609848 10.937C0.831853 11.159 1.10041 11.27 1.41551 11.27Z" fill="#767676"/>
</g>
<defs>
<clipPath id="clip0_0_296">
<rect width="12.69" height="11" fill="white" transform="matrix(1 0 0 -1 0.270004 11.27)"/>
</clipPath>
</defs>
</svg>
