<svg width="16" height="11" viewBox="0 0 16 11" fill="none" xmlns="http://www.w3.org/2000/svg">
<g clip-path="url(#clip0_0_291)">
<path d="M8.24501 0.270004C7.41168 0.270004 6.61415 0.393703 5.85243 0.641098C5.09071 0.888494 4.39247 1.23355 3.75771 1.67625C3.12294 2.11896 2.56142 2.64631 2.07314 3.25829C1.58485 3.87026 1.19748 4.54084 0.911026 5.27C1.19748 5.99917 1.58485 6.66974 2.07314 7.28172C2.56142 7.8937 3.12294 8.42105 3.75771 8.86375C4.39247 9.30646 5.09071 9.65151 5.85243 9.89891C6.61415 10.1463 7.41168 10.27 8.24501 10.27C9.07834 10.27 9.87587 10.1463 10.6376 9.89891C11.3928 9.65151 12.0894 9.30646 12.7274 8.86375C13.3655 8.42105 13.9286 7.8937 14.4169 7.28172C14.9052 6.66974 15.2925 5.99917 15.579 5.27C15.2925 4.54084 14.9052 3.87026 14.4169 3.25829C13.9286 2.64631 13.3655 2.11896 12.7274 1.67625C12.0894 1.23355 11.3928 0.888494 10.6376 0.641098C9.87587 0.393703 9.07834 0.270004 8.24501 0.270004ZM8.24501 8.60008C7.78277 8.60008 7.34983 8.51219 6.94618 8.33641C6.54254 8.16714 6.18935 7.93114 5.88661 7.6284C5.58388 7.32567 5.34462 6.97248 5.16884 6.56883C4.99957 6.16519 4.91493 5.73224 4.91493 5.27C4.91493 4.80776 4.99957 4.37482 5.16884 3.97118C5.34462 3.56753 5.58388 3.21434 5.88661 2.91161C6.18935 2.60887 6.54254 2.37287 6.94618 2.2036C7.34983 2.02782 7.78277 1.93993 8.24501 1.93993C8.70725 1.93993 9.14019 2.02782 9.54384 2.2036C9.94748 2.37287 10.3007 2.60887 10.6034 2.91161C10.9061 3.21434 11.1421 3.56753 11.3114 3.97118C11.4872 4.37482 11.5751 4.80776 11.5751 5.27C11.5751 5.73224 11.4872 6.16519 11.3114 6.56883C11.1421 6.97248 10.9061 7.32567 10.6034 7.6284C10.3007 7.93114 9.94748 8.16714 9.54384 8.33641C9.14019 8.51219 8.70725 8.60008 8.24501 8.60008ZM8.24501 3.26805C7.96506 3.26805 7.70465 3.32013 7.46376 3.4243C7.22288 3.52847 7.01129 3.6717 6.82899 3.85399C6.6467 4.03628 6.50347 4.24787 6.39931 4.48875C6.29514 4.73615 6.24306 4.99657 6.24306 5.27C6.24306 5.54344 6.29514 5.80386 6.39931 6.05125C6.50347 6.29214 6.6467 6.50373 6.82899 6.68602C7.01129 6.86831 7.22288 7.01154 7.46376 7.11571C7.70465 7.21987 7.96506 7.27196 8.24501 7.27196C8.51845 7.27196 8.77886 7.21987 9.02626 7.11571C9.26715 7.01154 9.47873 6.86831 9.66103 6.68602C9.84332 6.50373 9.98655 6.29214 10.0907 6.05125C10.1949 5.80386 10.247 5.54344 10.247 5.27C10.247 4.99657 10.1949 4.73615 10.0907 4.48875C9.98655 4.24787 9.84332 4.03628 9.66103 3.85399C9.47873 3.6717 9.26715 3.52847 9.02626 3.4243C8.77886 3.32013 8.51845 3.26805 8.24501 3.26805Z" fill="#767676"/>
</g>
<defs>
<clipPath id="clip0_0_291">
<rect width="14.67" height="10" fill="white" transform="matrix(1 0 0 -1 0.910004 10.27)"/>
</clipPath>
</defs>
</svg>
