<svg width="14" height="12" viewBox="0 0 14 12" fill="none" xmlns="http://www.w3.org/2000/svg">
<g clip-path="url(#clip0_0_518)">
<path d="M7.64182 0.51709L4.5051 3.66455C4.39767 3.77197 4.31532 3.89551 4.25803 4.03516C4.20073 4.1748 4.17209 4.31982 4.17209 4.47021V10.1313C4.17209 10.4465 4.28309 10.715 4.5051 10.937C4.7271 11.159 4.99566 11.27 5.31076 11.27H10.4133C10.6425 11.27 10.8519 11.2074 11.0417 11.082C11.2315 10.9567 11.3694 10.7902 11.4553 10.5825L13.3029 6.26416C13.4247 5.98486 13.4677 5.70199 13.4319 5.41553C13.4032 5.13623 13.3137 4.88379 13.1633 4.6582C13.0129 4.43262 12.816 4.24821 12.5725 4.10498C12.3218 3.96175 12.0461 3.89014 11.7453 3.89014H8.53342L9.07053 1.29053C9.09917 1.1473 9.0938 1.00765 9.05441 0.871582C9.01503 0.735515 8.9452 0.617351 8.84494 0.51709C8.67307 0.352376 8.47075 0.27002 8.23801 0.27002C8.00526 0.27002 7.80653 0.352376 7.64182 0.51709ZM1.90549 11.27C2.21343 11.27 2.4784 11.159 2.70041 10.937C2.92241 10.715 3.03342 10.4465 3.03342 10.1313V5.59814C3.03342 5.28304 2.92241 5.01449 2.70041 4.79248C2.4784 4.57048 2.21343 4.45947 1.90549 4.45947C1.59038 4.45947 1.32183 4.57048 1.09982 4.79248C0.877818 5.01449 0.766815 5.28304 0.766815 5.59814V10.1313C0.766815 10.4465 0.877818 10.715 1.09982 10.937C1.32183 11.159 1.59038 11.27 1.90549 11.27Z" fill="#767676"/>
</g>
<defs>
<clipPath id="clip0_0_518">
<rect width="12.69" height="11" fill="white" transform="matrix(1 0 0 -1 0.759979 11.27)"/>
</clipPath>
</defs>
</svg>
