<svg width="15" height="11" viewBox="0 0 15 11" fill="none" xmlns="http://www.w3.org/2000/svg">
<g clip-path="url(#clip0_0_328)">
<path d="M7.495 0.270004C6.66167 0.270004 5.86414 0.393703 5.10242 0.641098C4.34071 0.888494 3.64246 1.23355 3.0077 1.67625C2.37293 2.11896 1.81141 2.64631 1.32313 3.25829C0.834846 3.87026 0.447477 4.54084 0.161018 5.27C0.447477 5.99917 0.834846 6.66974 1.32313 7.28172C1.81141 7.8937 2.37293 8.42105 3.0077 8.86375C3.64246 9.30646 4.34071 9.65151 5.10242 9.89891C5.86414 10.1463 6.66167 10.27 7.495 10.27C8.32834 10.27 9.12586 10.1463 9.88758 9.89891C10.6428 9.65151 11.3394 9.30646 11.9774 8.86375C12.6154 8.42105 13.1786 7.8937 13.6669 7.28172C14.1552 6.66974 14.5425 5.99917 14.829 5.27C14.5425 4.54084 14.1552 3.87026 13.6669 3.25829C13.1786 2.64631 12.6154 2.11896 11.9774 1.67625C11.3394 1.23355 10.6428 0.888494 9.88758 0.641098C9.12586 0.393703 8.32834 0.270004 7.495 0.270004ZM7.495 8.60008C7.03276 8.60008 6.59982 8.51219 6.19617 8.33641C5.79253 8.16714 5.43934 7.93114 5.1366 7.6284C4.83387 7.32567 4.59461 6.97248 4.41883 6.56883C4.24956 6.16519 4.16492 5.73224 4.16492 5.27C4.16492 4.80776 4.24956 4.37482 4.41883 3.97118C4.59461 3.56753 4.83387 3.21434 5.1366 2.91161C5.43934 2.60887 5.79253 2.37287 6.19617 2.2036C6.59982 2.02782 7.03276 1.93993 7.495 1.93993C7.95724 1.93993 8.39019 2.02782 8.79383 2.2036C9.19748 2.37287 9.55067 2.60887 9.8534 2.91161C10.1561 3.21434 10.3921 3.56753 10.5614 3.97118C10.7372 4.37482 10.8251 4.80776 10.8251 5.27C10.8251 5.73224 10.7372 6.16519 10.5614 6.56883C10.3921 6.97248 10.1561 7.32567 9.8534 7.6284C9.55067 7.93114 9.19748 8.16714 8.79383 8.33641C8.39019 8.51219 7.95724 8.60008 7.495 8.60008ZM7.495 3.26805C7.21505 3.26805 6.95464 3.32013 6.71375 3.4243C6.47287 3.52847 6.26128 3.6717 6.07899 3.85399C5.8967 4.03628 5.75347 4.24787 5.6493 4.48875C5.54513 4.73615 5.49305 4.99657 5.49305 5.27C5.49305 5.54344 5.54513 5.80386 5.6493 6.05125C5.75347 6.29214 5.8967 6.50373 6.07899 6.68602C6.26128 6.86831 6.47287 7.01154 6.71375 7.11571C6.95464 7.21987 7.21505 7.27196 7.495 7.27196C7.76844 7.27196 8.02886 7.21987 8.27625 7.11571C8.51714 7.01154 8.72873 6.86831 8.91102 6.68602C9.09331 6.50373 9.23654 6.29214 9.34071 6.05125C9.44487 5.80386 9.49696 5.54344 9.49696 5.27C9.49696 4.99657 9.44487 4.73615 9.34071 4.48875C9.23654 4.24787 9.09331 4.03628 8.91102 3.85399C8.72873 3.6717 8.51714 3.52847 8.27625 3.4243C8.02886 3.32013 7.76844 3.26805 7.495 3.26805Z" fill="#767676"/>
</g>
<defs>
<clipPath id="clip0_0_328">
<rect width="14.67" height="10" fill="white" transform="matrix(1 0 0 -1 0.160004 10.27)"/>
</clipPath>
</defs>
</svg>
