<svg width="15" height="11" viewBox="0 0 15 11" fill="none" xmlns="http://www.w3.org/2000/svg">
<g clip-path="url(#clip0_0_217)">
<path d="M7.38498 0.270004C6.55165 0.270004 5.75412 0.393703 4.9924 0.641098C4.23068 0.888494 3.53244 1.23355 2.89767 1.67625C2.26291 2.11896 1.70139 2.64631 1.2131 3.25829C0.724823 3.87026 0.337453 4.54084 0.0509949 5.27C0.337453 5.99917 0.724823 6.66974 1.2131 7.28172C1.70139 7.8937 2.26291 8.42105 2.89767 8.86375C3.53244 9.30646 4.23068 9.65151 4.9924 9.89891C5.75412 10.1463 6.55165 10.27 7.38498 10.27C8.21831 10.27 9.01584 10.1463 9.77756 9.89891C10.5328 9.65151 11.2294 9.30646 11.8674 8.86375C12.5054 8.42105 13.0686 7.8937 13.5569 7.28172C14.0451 6.66974 14.4325 5.99917 14.719 5.27C14.4325 4.54084 14.0451 3.87026 13.5569 3.25829C13.0686 2.64631 12.5054 2.11896 11.8674 1.67625C11.2294 1.23355 10.5328 0.888494 9.77756 0.641098C9.01584 0.393703 8.21831 0.270004 7.38498 0.270004ZM7.38498 8.60008C6.92274 8.60008 6.4898 8.51219 6.08615 8.33641C5.68251 8.16714 5.32932 7.93114 5.02658 7.6284C4.72385 7.32567 4.48459 6.97248 4.30881 6.56883C4.13954 6.16519 4.0549 5.73224 4.0549 5.27C4.0549 4.80776 4.13954 4.37482 4.30881 3.97118C4.48459 3.56753 4.72385 3.21434 5.02658 2.91161C5.32932 2.60887 5.68251 2.37287 6.08615 2.2036C6.4898 2.02782 6.92274 1.93993 7.38498 1.93993C7.84722 1.93993 8.28016 2.02782 8.68381 2.2036C9.08745 2.37287 9.44064 2.60887 9.74338 2.91161C10.0461 3.21434 10.2821 3.56753 10.4514 3.97118C10.6272 4.37482 10.7151 4.80776 10.7151 5.27C10.7151 5.73224 10.6272 6.16519 10.4514 6.56883C10.2821 6.97248 10.0461 7.32567 9.74338 7.6284C9.44064 7.93114 9.08745 8.16714 8.68381 8.33641C8.28016 8.51219 7.84722 8.60008 7.38498 8.60008ZM7.38498 3.26805C7.10503 3.26805 6.84461 3.32013 6.60373 3.4243C6.36284 3.52847 6.15126 3.6717 5.96896 3.85399C5.78667 4.03628 5.64344 4.24787 5.53928 4.48875C5.43511 4.73615 5.38303 4.99657 5.38303 5.27C5.38303 5.54344 5.43511 5.80386 5.53928 6.05125C5.64344 6.29214 5.78667 6.50373 5.96896 6.68602C6.15126 6.86831 6.36284 7.01154 6.60373 7.11571C6.84461 7.21987 7.10503 7.27196 7.38498 7.27196C7.65842 7.27196 7.91883 7.21987 8.16623 7.11571C8.40711 7.01154 8.6187 6.86831 8.80099 6.68602C8.98329 6.50373 9.12652 6.29214 9.23068 6.05125C9.33485 5.80386 9.38693 5.54344 9.38693 5.27C9.38693 4.99657 9.33485 4.73615 9.23068 4.48875C9.12652 4.24787 8.98329 4.03628 8.80099 3.85399C8.6187 3.6717 8.40711 3.52847 8.16623 3.4243C7.91883 3.32013 7.65842 3.26805 7.38498 3.26805Z" fill="#767676"/>
</g>
<defs>
<clipPath id="clip0_0_217">
<rect width="14.67" height="10" fill="white" transform="matrix(1 0 0 -1 0.0499878 10.27)"/>
</clipPath>
</defs>
</svg>
