<svg width="15" height="11" viewBox="0 0 15 11" fill="none" xmlns="http://www.w3.org/2000/svg">
<g clip-path="url(#clip0_0_476)">
<path d="M7.495 0.27002C6.66167 0.27002 5.86414 0.393718 5.10242 0.641113C4.34071 0.888509 3.64246 1.23356 3.0077 1.67627C2.37293 2.11898 1.81141 2.64632 1.32313 3.2583C0.834846 3.87028 0.447477 4.54085 0.161018 5.27002C0.447477 5.99919 0.834846 6.66976 1.32313 7.28174C1.81141 7.89372 2.37293 8.42106 3.0077 8.86377C3.64246 9.30648 4.34071 9.65153 5.10242 9.89893C5.86414 10.1463 6.66167 10.27 7.495 10.27C8.32834 10.27 9.12586 10.1463 9.88758 9.89893C10.6428 9.65153 11.3394 9.30648 11.9774 8.86377C12.6154 8.42106 13.1786 7.89372 13.6669 7.28174C14.1552 6.66976 14.5425 5.99919 14.829 5.27002C14.5425 4.54085 14.1552 3.87028 13.6669 3.2583C13.1786 2.64632 12.6154 2.11898 11.9774 1.67627C11.3394 1.23356 10.6428 0.888509 9.88758 0.641113C9.12586 0.393718 8.32834 0.27002 7.495 0.27002ZM7.495 8.6001C7.03276 8.6001 6.59982 8.51221 6.19617 8.33643C5.79253 8.16716 5.43934 7.93115 5.1366 7.62842C4.83387 7.32568 4.59461 6.97249 4.41883 6.56885C4.24956 6.1652 4.16492 5.73226 4.16492 5.27002C4.16492 4.80778 4.24956 4.37484 4.41883 3.97119C4.59461 3.56755 4.83387 3.21436 5.1366 2.91162C5.43934 2.60889 5.79253 2.37288 6.19617 2.20361C6.59982 2.02783 7.03276 1.93994 7.495 1.93994C7.95724 1.93994 8.39019 2.02783 8.79383 2.20361C9.19748 2.37288 9.55067 2.60889 9.8534 2.91162C10.1561 3.21436 10.3921 3.56755 10.5614 3.97119C10.7372 4.37484 10.8251 4.80778 10.8251 5.27002C10.8251 5.73226 10.7372 6.1652 10.5614 6.56885C10.3921 6.97249 10.1561 7.32568 9.8534 7.62842C9.55067 7.93115 9.19748 8.16716 8.79383 8.33643C8.39019 8.51221 7.95724 8.6001 7.495 8.6001ZM7.495 3.26807C7.21505 3.26807 6.95464 3.32015 6.71375 3.42432C6.47287 3.52848 6.26128 3.67171 6.07899 3.854C5.8967 4.0363 5.75347 4.24788 5.6493 4.48877C5.54513 4.73617 5.49305 4.99658 5.49305 5.27002C5.49305 5.54346 5.54513 5.80387 5.6493 6.05127C5.75347 6.29216 5.8967 6.50374 6.07899 6.68604C6.26128 6.86833 6.47287 7.01156 6.71375 7.11572C6.95464 7.21989 7.21505 7.27197 7.495 7.27197C7.76844 7.27197 8.02886 7.21989 8.27625 7.11572C8.51714 7.01156 8.72873 6.86833 8.91102 6.68604C9.09331 6.50374 9.23654 6.29216 9.34071 6.05127C9.44487 5.80387 9.49696 5.54346 9.49696 5.27002C9.49696 4.99658 9.44487 4.73617 9.34071 4.48877C9.23654 4.24788 9.09331 4.0363 8.91102 3.854C8.72873 3.67171 8.51714 3.52848 8.27625 3.42432C8.02886 3.32015 7.76844 3.26807 7.495 3.26807Z" fill="#767676"/>
</g>
<defs>
<clipPath id="clip0_0_476">
<rect width="14.67" height="10" fill="white" transform="matrix(1 0 0 -1 0.160004 10.27)"/>
</clipPath>
</defs>
</svg>
