<svg width="14" height="12" viewBox="0 0 14 12" fill="none" xmlns="http://www.w3.org/2000/svg">
<g clip-path="url(#clip0_0_111)">
<path d="M7.6618 0.517075L4.52509 3.66454C4.41766 3.77196 4.33531 3.89549 4.27802 4.03514C4.22072 4.17479 4.19208 4.31981 4.19208 4.4702V10.1313C4.19208 10.4464 4.30308 10.715 4.52509 10.937C4.74709 11.159 5.01565 11.27 5.33075 11.27H10.4333C10.6625 11.27 10.8719 11.2073 11.0617 11.082C11.2515 10.9567 11.3893 10.7902 11.4753 10.5825L13.3229 6.26414C13.4447 5.98485 13.4877 5.70197 13.4518 5.41551C13.4232 5.13622 13.3337 4.88377 13.1833 4.65819C13.0329 4.4326 12.836 4.24819 12.5925 4.10497C12.3418 3.96174 12.0661 3.89012 11.7653 3.89012H8.55341L9.09052 1.29051C9.11916 1.14728 9.11379 1.00763 9.0744 0.871567C9.03501 0.735499 8.96519 0.617335 8.86493 0.517075C8.69305 0.352361 8.49074 0.270004 8.258 0.270004C8.02525 0.270004 7.82652 0.352361 7.6618 0.517075ZM1.92548 11.27C2.23342 11.27 2.49839 11.159 2.7204 10.937C2.9424 10.715 3.05341 10.4464 3.05341 10.1313V5.59813C3.05341 5.28303 2.9424 5.01447 2.7204 4.79247C2.49839 4.57046 2.23342 4.45946 1.92548 4.45946C1.61037 4.45946 1.34182 4.57046 1.11981 4.79247C0.897807 5.01447 0.786804 5.28303 0.786804 5.59813V10.1313C0.786804 10.4464 0.897807 10.715 1.11981 10.937C1.34182 11.159 1.61037 11.27 1.92548 11.27Z" fill="#767676"/>
</g>
<defs>
<clipPath id="clip0_0_111">
<rect width="12.69" height="11" fill="white" transform="matrix(1 0 0 -1 0.779968 11.27)"/>
</clipPath>
</defs>
</svg>
