<svg width="45" height="45" viewBox="0 0 45 45" fill="none" xmlns="http://www.w3.org/2000/svg">
<rect width="45" height="45" rx="22.5" fill="#151515"/>
<g clip-path="url(#clip0_8_605)">
<path d="M22.5 10C20.7747 10 19.1553 10.3255 17.6416 10.9766C16.1279 11.6439 14.8055 12.5431 13.6743 13.6743C12.5431 14.8055 11.6439 16.1279 10.9766 17.6416C10.3255 19.1553 10 20.7747 10 22.5C10 24.2253 10.3255 25.8447 10.9766 27.3584C11.6439 28.8721 12.5431 30.1945 13.6743 31.3257C14.8055 32.4569 16.1279 33.3561 17.6416 34.0234C19.1553 34.6745 20.7747 35 22.5 35C24.2253 35 25.8447 34.6745 27.3584 34.0234C28.8721 33.3561 30.1945 32.4569 31.3257 31.3257C32.4569 30.1945 33.3561 28.8721 34.0234 27.3584C34.6745 25.8447 35 24.2253 35 22.5C35 20.7747 34.6745 19.1553 34.0234 17.6416C33.3561 16.1279 32.4569 14.8055 31.3257 13.6743C30.1945 12.5431 28.8721 11.6439 27.3584 10.9766C25.8447 10.3255 24.2253 10 22.5 10ZM22.5 13.7598C23.5417 13.7598 24.4287 14.1219 25.1611 14.8462C25.8936 15.5705 26.2598 16.4535 26.2598 17.4951C26.2598 18.5368 25.8936 19.4238 25.1611 20.1562C24.4287 20.8887 23.5417 21.2549 22.5 21.2549C21.4583 21.2549 20.5713 20.8887 19.8389 20.1562C19.1064 19.4238 18.7402 18.5368 18.7402 17.4951C18.7402 16.4535 19.1064 15.5705 19.8389 14.8462C20.5713 14.1219 21.4583 13.7598 22.5 13.7598ZM15.0049 27.4805C15.0049 26.862 15.2816 26.3086 15.835 25.8203C16.3883 25.3483 17.0516 24.9495 17.8247 24.624C18.5978 24.2985 19.4157 24.0462 20.2783 23.8672C21.141 23.7044 21.8815 23.623 22.5 23.623C23.1185 23.623 23.859 23.7044 24.7217 23.8672C25.568 24.0462 26.3818 24.2985 27.1631 24.624C27.9443 24.9495 28.6117 25.3483 29.165 25.8203C29.7184 26.3086 29.9951 26.862 29.9951 27.4805C29.5882 28.0827 29.1162 28.6279 28.5791 29.1162C28.042 29.6208 27.452 30.048 26.8091 30.3979C26.1662 30.7479 25.4867 31.0205 24.7705 31.2158C24.0381 31.4111 23.2812 31.5088 22.5 31.5088C21.7188 31.5088 20.9619 31.4111 20.2295 31.2158C19.5133 31.0205 18.8338 30.7479 18.1909 30.3979C17.548 30.048 16.958 29.6208 16.4209 29.1162C15.8838 28.6279 15.4118 28.0827 15.0049 27.4805Z" fill="#C6C6C6"/>
</g>
<defs>
<clipPath id="clip0_8_605">
<rect width="25" height="25" fill="white" transform="matrix(1 0 0 -1 10 35)"/>
</clipPath>
</defs>
</svg>
