<svg width="25" height="42" viewBox="0 0 25 42" fill="none" xmlns="http://www.w3.org/2000/svg">
<g clip-path="url(#clip0_0_490)">
<path d="M12.75 7.59003C13.3021 7.59003 13.7734 7.39471 14.1641 7.00409C14.5547 6.61346 14.75 6.14211 14.75 5.59003C14.75 5.03794 14.5547 4.56659 14.1641 4.17596C13.7734 3.78534 13.3021 3.59003 12.75 3.59003C12.1979 3.59003 11.7266 3.78534 11.3359 4.17596C10.9453 4.56659 10.75 5.03794 10.75 5.59003C10.75 6.14211 10.9453 6.61346 11.3359 7.00409C11.7266 7.39471 12.1979 7.59003 12.75 7.59003ZM12.75 9.59003C12.1979 9.59003 11.7266 9.78534 11.3359 10.176C10.9453 10.5666 10.75 11.0379 10.75 11.59C10.75 12.1421 10.9453 12.6135 11.3359 13.0041C11.7266 13.3947 12.1979 13.59 12.75 13.59C13.3021 13.59 13.7734 13.3947 14.1641 13.0041C14.5547 12.6135 14.75 12.1421 14.75 11.59C14.75 11.0379 14.5547 10.5666 14.1641 10.176C13.7734 9.78534 13.3021 9.59003 12.75 9.59003ZM12.75 15.59C12.1979 15.59 11.7266 15.7853 11.3359 16.176C10.9453 16.5666 10.75 17.0379 10.75 17.59C10.75 18.1421 10.9453 18.6135 11.3359 19.0041C11.7266 19.3947 12.1979 19.59 12.75 19.59C13.3021 19.59 13.7734 19.3947 14.1641 19.0041C14.5547 18.6135 14.75 18.1421 14.75 17.59C14.75 17.0379 14.5547 16.5666 14.1641 16.176C13.7734 15.7853 13.3021 15.59 12.75 15.59Z" fill="#C6C6C6"/>
</g>
<defs>
<clipPath id="clip0_0_490">
<rect width="4" height="16" fill="white" transform="matrix(1 0 0 -1 10.75 19.59)"/>
</clipPath>
</defs>
</svg>
