<svg width="20" height="20" viewBox="0 0 20 20" fill="none" xmlns="http://www.w3.org/2000/svg">
<path d="M17.5 17.5L13.8808 13.8808M13.8808 13.8808C14.4999 13.2617 14.991 12.5268 15.326 11.7179C15.661 10.9091 15.8335 10.0422 15.8335 9.16666C15.8335 8.29115 15.6611 7.42422 15.326 6.61537C14.991 5.80651 14.4999 5.07156 13.8808 4.45249C13.2617 3.83342 12.5268 3.34234 11.7179 3.0073C10.9091 2.67226 10.0422 2.49982 9.16666 2.49982C8.29115 2.49982 7.42422 2.67226 6.61537 3.0073C5.80651 3.34234 5.07156 3.83342 4.45249 4.45249C3.20221 5.70276 2.49982 7.3985 2.49982 9.16666C2.49982 10.9348 3.20221 12.6305 4.45249 13.8808C5.70276 15.1311 7.3985 15.8335 9.16666 15.8335C10.9348 15.8335 12.6305 15.1311 13.8808 13.8808Z" stroke="white" stroke-width="1.5" stroke-linecap="round" stroke-linejoin="round"/>
</svg>
