<svg width="14" height="12" viewBox="0 0 14 12" fill="none" xmlns="http://www.w3.org/2000/svg">
<g clip-path="url(#clip0_0_407)">
<path d="M7.6618 0.51709L4.52509 3.66455C4.41766 3.77197 4.33531 3.89551 4.27802 4.03516C4.22072 4.1748 4.19208 4.31982 4.19208 4.47021V10.1313C4.19208 10.4465 4.30308 10.715 4.52509 10.937C4.74709 11.159 5.01565 11.27 5.33075 11.27H10.4333C10.6625 11.27 10.8719 11.2074 11.0617 11.082C11.2515 10.9567 11.3893 10.7902 11.4753 10.5825L13.3229 6.26416C13.4447 5.98486 13.4877 5.70199 13.4518 5.41553C13.4232 5.13623 13.3337 4.88379 13.1833 4.6582C13.0329 4.43262 12.836 4.24821 12.5925 4.10498C12.3418 3.96175 12.0661 3.89014 11.7653 3.89014H8.55341L9.09052 1.29053C9.11916 1.1473 9.11379 1.00765 9.0744 0.871582C9.03501 0.735515 8.96519 0.617351 8.86493 0.51709C8.69305 0.352376 8.49074 0.27002 8.258 0.27002C8.02525 0.27002 7.82652 0.352376 7.6618 0.51709ZM1.92548 11.27C2.23342 11.27 2.49839 11.159 2.7204 10.937C2.9424 10.715 3.05341 10.4465 3.05341 10.1313V5.59814C3.05341 5.28304 2.9424 5.01449 2.7204 4.79248C2.49839 4.57048 2.23342 4.45947 1.92548 4.45947C1.61037 4.45947 1.34182 4.57048 1.11981 4.79248C0.897807 5.01449 0.786804 5.28304 0.786804 5.59814V10.1313C0.786804 10.4465 0.897807 10.715 1.11981 10.937C1.34182 11.159 1.61037 11.27 1.92548 11.27Z" fill="#767676"/>
</g>
<defs>
<clipPath id="clip0_0_407">
<rect width="12.69" height="11" fill="white" transform="matrix(1 0 0 -1 0.779968 11.27)"/>
</clipPath>
</defs>
</svg>
