<svg width="15" height="11" viewBox="0 0 15 11" fill="none" xmlns="http://www.w3.org/2000/svg">
<g clip-path="url(#clip0_0_513)">
<path d="M7.38498 0.27002C6.55165 0.27002 5.75412 0.393718 4.9924 0.641113C4.23068 0.888509 3.53244 1.23356 2.89767 1.67627C2.26291 2.11898 1.70139 2.64632 1.2131 3.2583C0.724823 3.87028 0.337453 4.54085 0.0509949 5.27002C0.337453 5.99919 0.724823 6.66976 1.2131 7.28174C1.70139 7.89372 2.26291 8.42106 2.89767 8.86377C3.53244 9.30648 4.23068 9.65153 4.9924 9.89893C5.75412 10.1463 6.55165 10.27 7.38498 10.27C8.21831 10.27 9.01584 10.1463 9.77756 9.89893C10.5328 9.65153 11.2294 9.30648 11.8674 8.86377C12.5054 8.42106 13.0686 7.89372 13.5569 7.28174C14.0451 6.66976 14.4325 5.99919 14.719 5.27002C14.4325 4.54085 14.0451 3.87028 13.5569 3.2583C13.0686 2.64632 12.5054 2.11898 11.8674 1.67627C11.2294 1.23356 10.5328 0.888509 9.77756 0.641113C9.01584 0.393718 8.21831 0.27002 7.38498 0.27002ZM7.38498 8.6001C6.92274 8.6001 6.4898 8.51221 6.08615 8.33643C5.68251 8.16716 5.32932 7.93115 5.02658 7.62842C4.72385 7.32568 4.48459 6.97249 4.30881 6.56885C4.13954 6.1652 4.0549 5.73226 4.0549 5.27002C4.0549 4.80778 4.13954 4.37484 4.30881 3.97119C4.48459 3.56755 4.72385 3.21436 5.02658 2.91162C5.32932 2.60889 5.68251 2.37288 6.08615 2.20361C6.4898 2.02783 6.92274 1.93994 7.38498 1.93994C7.84722 1.93994 8.28016 2.02783 8.68381 2.20361C9.08745 2.37288 9.44064 2.60889 9.74338 2.91162C10.0461 3.21436 10.2821 3.56755 10.4514 3.97119C10.6272 4.37484 10.7151 4.80778 10.7151 5.27002C10.7151 5.73226 10.6272 6.1652 10.4514 6.56885C10.2821 6.97249 10.0461 7.32568 9.74338 7.62842C9.44064 7.93115 9.08745 8.16716 8.68381 8.33643C8.28016 8.51221 7.84722 8.6001 7.38498 8.6001ZM7.38498 3.26807C7.10503 3.26807 6.84461 3.32015 6.60373 3.42432C6.36284 3.52848 6.15126 3.67171 5.96896 3.854C5.78667 4.0363 5.64344 4.24788 5.53928 4.48877C5.43511 4.73617 5.38303 4.99658 5.38303 5.27002C5.38303 5.54346 5.43511 5.80387 5.53928 6.05127C5.64344 6.29216 5.78667 6.50374 5.96896 6.68604C6.15126 6.86833 6.36284 7.01156 6.60373 7.11572C6.84461 7.21989 7.10503 7.27197 7.38498 7.27197C7.65842 7.27197 7.91883 7.21989 8.16623 7.11572C8.40711 7.01156 8.6187 6.86833 8.80099 6.68604C8.98329 6.50374 9.12652 6.29216 9.23068 6.05127C9.33485 5.80387 9.38693 5.54346 9.38693 5.27002C9.38693 4.99658 9.33485 4.73617 9.23068 4.48877C9.12652 4.24788 8.98329 4.0363 8.80099 3.854C8.6187 3.67171 8.40711 3.52848 8.16623 3.42432C7.91883 3.32015 7.65842 3.26807 7.38498 3.26807Z" fill="#767676"/>
</g>
<defs>
<clipPath id="clip0_0_513">
<rect width="14.67" height="10" fill="white" transform="matrix(1 0 0 -1 0.0499878 10.27)"/>
</clipPath>
</defs>
</svg>
